<svg xmlns="http://www.w3.org/2000/svg" width="140.795" height="140.74" viewBox="0 0 140.795 140.74">
  <g id="Group_472" data-name="Group 472" transform="translate(278 -592)">
    <g id="Rectangle_299" data-name="Rectangle 299" transform="translate(-270.963 592)" fill="#fff" stroke="#707070" stroke-width="1">
      <rect width="126.08" height="120.216" stroke="none"/>
      <rect x="0.5" y="0.5" width="125.08" height="119.216" fill="none"/>
    </g>
    <path id="Path_177" data-name="Path 177" d="M68.549,104.811c0-.415-.386-.715-1.154-.9a18.367,18.367,0,0,0-3.86-.28H58.824v2.412h4.864a16.6,16.6,0,0,0,3.691-.294Q68.549,105.45,68.549,104.811Zm61.072-2.539a.946.946,0,1,0,.907.942A.912.912,0,0,0,129.621,102.272Zm.328,1.6-.34-.567h-.225v.567h-.2v-1.308h.491c.3,0,.456.114.456.372a.338.338,0,0,1-.334.36l.367.576ZM0,0V140.74H118.769L140.8,118.714V0ZM51.428,29.582s-2.654,2.189,1.1,6.286C53.967,37.415,70.351,55.232,70.4,55.287c.046-.056,16.43-17.873,17.854-19.419,3.76-4.1,1.115-6.286,1.115-6.286h19.022s-3.65,1.416-8.06,6.286C95.936,40.718,79.58,58.434,79.58,58.434H61.2S44.867,40.718,40.457,35.868c-4.4-4.87-8.069-6.286-8.069-6.286Zm6.666,38.8-5.706-7.121h36l-5.706,7.121H74.568V78.54L70.4,83.746,66.216,78.54V68.385ZM37.547,42.372a3.445,3.445,0,0,0-.066,4.756C40.586,51.1,70.4,88.312,70.4,88.312S100.189,51.1,103.323,47.128a3.461,3.461,0,0,0-.074-4.756H122.3a15.29,15.29,0,0,0-4.6,3.541C116,48.044,83.315,89.161,83.315,89.161s-3.9,3.853-.5,6.469H57.975c3.385-2.616-.5-6.469-.5-6.469S24.785,48.044,23.086,45.913a15.186,15.186,0,0,0-4.593-3.541Zm77.7,53.459a1.816,1.816,0,1,1-1.811-1.81A1.8,1.8,0,0,1,115.247,95.831Zm-84.279,6.831a3.19,3.19,0,0,0-.769.228,1.71,1.71,0,0,0-.52.42l-5.608,6.578a.6.6,0,0,0-.109.157.381.381,0,0,0-.039.167.272.272,0,0,0,.164.253,1.483,1.483,0,0,0,.5.116v.192H19.563l.015-.2a1.328,1.328,0,0,0,.5-.108.272.272,0,0,0,.159-.252.312.312,0,0,0-.048-.141,1.031,1.031,0,0,0-.133-.191l-5.889-6.587a1.849,1.849,0,0,0-.531-.4,3.222,3.222,0,0,0-.732-.231v-.192h4.518v.192a1.687,1.687,0,0,0-.548.143c-.139.07-.209.146-.209.236a.314.314,0,0,0,.039.13.605.605,0,0,0,.116.154l5.261,5.893,4.995-5.893a.718.718,0,0,0,.117-.164.344.344,0,0,0,.038-.138c0-.086-.065-.161-.2-.226a1.821,1.821,0,0,0-.551-.134v-.192h4.488Zm17.821,7.031a15.9,15.9,0,0,1-6.684,1.224,15.881,15.881,0,0,1-6.683-1.224q-2.638-1.222-2.637-3.08t2.622-3.067a15.912,15.912,0,0,1,6.7-1.22,15.916,15.916,0,0,1,6.7,1.22q2.62,1.222,2.622,3.067T48.789,109.692ZM48.62,93.715c-1.617,2.2,1.122,3.936,1.122,3.936h-19.3a13.416,13.416,0,0,0,6.041-4.223c1.891-2.139,10.891-12.362,10.891-12.362l5.713,7.169S49.878,92.025,48.62,93.715Zm23.667,17.056H67.892v-.192h.121a1.014,1.014,0,0,0,.354-.05c.079-.033.122-.08.122-.139,0-.025-.03-.06-.1-.107a.545.545,0,0,1-.057-.046l-3.8-3.086H58.824v2.968a.325.325,0,0,0,.156.314,1.836,1.836,0,0,0,.61.155v.184H55.516v-.184a1.813,1.813,0,0,0,.573-.149.338.338,0,0,0,.144-.32v-6.986a.349.349,0,0,0-.144-.32,1.7,1.7,0,0,0-.573-.152v-.192h8.737a15.652,15.652,0,0,1,5.012.63q1.776.63,1.777,1.757a1.666,1.666,0,0,1-1,1.423,7.239,7.239,0,0,1-2.78.768q.891.7,2.221,1.811,2.067,1.723,2.665,1.722h.137Zm17.953-6.855H89.9a.643.643,0,0,0-.291-.313,1.764,1.764,0,0,0-.622-.072H83.578v6.594a.339.339,0,0,0,.139.31,1.559,1.559,0,0,0,.582.142v.192H80.224v-.192a1.554,1.554,0,0,0,.581-.142.331.331,0,0,0,.14-.31v-6.594H75.636a1.838,1.838,0,0,0-.623.072.621.621,0,0,0-.3.313H74.38v-1.834h.351a.685.685,0,0,0,.321.311,1.751,1.751,0,0,0,.616.075H88.957a1.748,1.748,0,0,0,.611-.075.76.76,0,0,0,.336-.311h.336Zm18.938,7.242h-.335a.59.59,0,0,0-.292-.311,1.57,1.57,0,0,0-.6-.076H94.037v-.192a1.593,1.593,0,0,0,.576-.147.35.35,0,0,0,.144-.32V103.12a.342.342,0,0,0-.144-.311,1.692,1.692,0,0,0-.576-.148v-.192h13.194a1.666,1.666,0,0,0,.632-.087.619.619,0,0,0,.308-.3h.337v1.786h-.337a.467.467,0,0,0-.262-.308,1.877,1.877,0,0,0-.647-.078H97.343v2.462h6.537a2.007,2.007,0,0,0,.617-.067.681.681,0,0,0,.321-.272l.335-.006v1.792l-.335-.006a.621.621,0,0,0-.293-.309,1.82,1.82,0,0,0-.615-.07H97.343v2.7h10.58a1.679,1.679,0,0,0,.6-.073.766.766,0,0,0,.318-.311h.335ZM91.043,97.651s2.749-1.74,1.124-3.936c-1.261-1.691-4.481-5.479-4.481-5.479l5.732-7.169s9,10.223,10.88,12.362a13.424,13.424,0,0,0,6.034,4.223Zm36.849,13.12H123.1l.049-.192a2.269,2.269,0,0,0,.384-.123c.069-.034.1-.072.1-.107a.285.285,0,0,0-.1-.166,2.36,2.36,0,0,0-.34-.252l-3.745-2.519-3.883,2.519a3.143,3.143,0,0,0-.324.252c-.079.073-.12.13-.12.166s.038.073.107.107a2.2,2.2,0,0,0,.384.123l.045.192h-4.821v-.192a4.094,4.094,0,0,0,1.455-.517.925.925,0,0,0,.077-.052l5.6-3.575-4.786-3.2a3.081,3.081,0,0,0-.65-.325,8.571,8.571,0,0,0-.877-.246v-.192h4.785l-.03.192a2.121,2.121,0,0,0-.368.124c-.069.037-.106.073-.106.114s.039.1.114.186a1.443,1.443,0,0,0,.3.239l3.2,2.1,3.2-2.1a2.706,2.706,0,0,0,.358-.266.265.265,0,0,0,.1-.159.182.182,0,0,0-.12-.164,1.07,1.07,0,0,0-.367-.074l-.031-.192h4.788v.192a6.029,6.029,0,0,0-1.977.863l-.136.094-4.373,2.8,5.413,3.593a2.45,2.45,0,0,0,.639.334,8.235,8.235,0,0,0,.861.23Zm1.729-6.42a1.134,1.134,0,1,1,1.132-1.137A1.127,1.127,0,0,1,129.621,104.351Zm-15.687-8.986c0-.26-.232-.307-.45-.307h-.426v.647h.374C113.7,95.706,113.934,95.687,113.934,95.365Zm16,7.557c0-.161-.145-.191-.281-.191h-.266v.4h.233C129.784,103.136,129.931,103.124,129.931,102.922Zm-17.954-7.092a1.456,1.456,0,1,0,1.46-1.508A1.46,1.46,0,0,0,111.977,95.831Zm2.285-.447a.542.542,0,0,1-.535.578l.588.921h-.352l-.544-.908h-.36v.908h-.313V94.789h.786C114.02,94.789,114.262,94.97,114.262,95.384Zm-67.344,8.975a11.151,11.151,0,0,0-4.8-.876,11.244,11.244,0,0,0-4.82.876q-1.83.878-1.832,2.282,0,1.426,1.826,2.3a11.4,11.4,0,0,0,4.858.868,11.032,11.032,0,0,0,4.771-.877q1.816-.875,1.818-2.289T46.918,104.359Z" transform="translate(-278 592)" fill="#040505"/>
  </g>
</svg>
